<svg width="1440" height="900" viewBox="0 0 1440 900" fill="none" xmlns="http://www.w3.org/2000/svg">
<rect width="1440" height="900" fill="white"/>
<rect width="720" height="900" fill="#B47EDE"/>
<text fill="#1D1E2C" xml:space="preserve" style="white-space: pre" font-family="Museo Sans Rounded" font-size="120" font-weight="500" letter-spacing="-0.03em"><tspan x="228" y="492.46">Mark</tspan></text>
<rect x="720" width="720" height="900" fill="#EF6461"/>
<text fill="#1D1E2C" xml:space="preserve" style="white-space: pre" font-family="Museo Sans Rounded" font-size="120" font-weight="500" letter-spacing="-0.03em"><tspan x="937" y="494.46">Work</tspan></text>
<line x1="719.5" y1="900" x2="719.5" y2="-2.40413e-07" stroke="#1D1E2C" stroke-width="11"/>
<circle cx="720" cy="450" r="68.5" fill="#F7EBEC" stroke="#1D1E2C" stroke-width="11"/>
<circle cx="720" cy="450" r="68.5" fill="#F7EBEC" stroke="#1D1E2C" stroke-width="11"/>
<path d="M693.824 461.363C693.824 459.78 693.527 458.559 692.933 457.699C692.385 456.84 691.768 456.184 691.083 455.732C690.124 455.189 689.37 454.647 688.822 454.104C688.274 453.561 688 452.747 688 451.662V447.863C688 446.778 688.274 445.964 688.822 445.421C689.37 444.878 690.101 444.313 691.015 443.725C691.746 443.318 692.385 442.662 692.933 441.758C693.527 440.853 693.824 439.587 693.824 437.959V431.989C693.824 429.728 694.258 427.897 695.126 426.495C696.039 425.048 697.113 423.917 698.346 423.103C699.579 422.289 700.835 421.746 702.114 421.475C703.439 421.158 704.535 421 705.403 421H706.636C709.148 421 710.405 422.244 710.405 424.731V426.088C710.405 428.575 709.148 429.819 706.636 429.819C706.317 429.819 705.974 429.864 705.609 429.954C705.289 430.045 704.969 430.226 704.649 430.497C704.375 430.723 704.147 431.085 703.964 431.582C703.781 432.035 703.69 432.645 703.69 433.414V441.012C703.69 442.73 703.393 444.155 702.799 445.285C702.206 446.416 701.543 447.298 700.812 447.931C699.99 448.7 699.031 449.265 697.935 449.627V449.763C699.031 450.124 699.99 450.667 700.812 451.391C701.543 452.024 702.206 452.906 702.799 454.036C703.393 455.122 703.69 456.546 703.69 458.31V466.586C703.69 467.355 703.781 467.988 703.964 468.485C704.147 468.938 704.375 469.299 704.649 469.571C704.969 469.797 705.289 469.955 705.609 470.046C705.974 470.136 706.317 470.181 706.636 470.181C709.148 470.181 710.405 471.425 710.405 473.912V475.269C710.405 477.756 709.148 479 706.636 479H705.403C704.535 479 703.439 478.842 702.114 478.525C700.835 478.254 699.579 477.711 698.346 476.897C697.113 476.083 696.039 474.952 695.126 473.505C694.258 472.103 693.824 470.272 693.824 468.011V461.363Z" fill="#1D1E2C"/>
<path d="M729.595 473.912C729.595 471.425 730.852 470.181 733.364 470.181C733.683 470.181 734.003 470.136 734.323 470.046C734.688 469.955 735.008 469.797 735.282 469.571C735.602 469.299 735.853 468.938 736.036 468.485C736.219 467.988 736.31 467.355 736.31 466.586V458.31C736.31 456.546 736.607 455.122 737.201 454.036C737.794 452.906 738.457 452.024 739.188 451.391C740.01 450.667 740.969 450.124 742.065 449.763V449.627C740.969 449.265 740.01 448.7 739.188 447.931C738.457 447.298 737.794 446.416 737.201 445.285C736.607 444.155 736.31 442.73 736.31 441.012V433.414C736.31 432.645 736.219 432.035 736.036 431.582C735.853 431.085 735.602 430.723 735.282 430.497C735.008 430.226 734.688 430.045 734.323 429.954C734.003 429.864 733.683 429.819 733.364 429.819C730.852 429.819 729.595 428.575 729.595 426.088V424.731C729.595 422.244 730.852 421 733.364 421H734.597C735.465 421 736.538 421.158 737.817 421.475C739.142 421.746 740.421 422.289 741.654 423.103C742.887 423.917 743.938 425.048 744.806 426.495C745.719 427.897 746.176 429.728 746.176 431.989V437.959C746.176 439.587 746.45 440.853 746.998 441.758C747.592 442.662 748.254 443.318 748.985 443.725C749.899 444.313 750.63 444.878 751.178 445.421C751.726 445.964 752 446.778 752 447.863V451.662C752 452.747 751.726 453.561 751.178 454.104C750.63 454.647 749.876 455.189 748.917 455.732C748.232 456.184 747.592 456.84 746.998 457.699C746.45 458.559 746.176 459.78 746.176 461.363V468.011C746.176 470.272 745.719 472.103 744.806 473.505C743.938 474.952 742.887 476.083 741.654 476.897C740.421 477.711 739.142 478.254 737.817 478.525C736.538 478.842 735.465 479 734.597 479H733.364C730.852 479 729.595 477.756 729.595 475.269V473.912Z" fill="#1D1E2C"/>
<circle cx="720" cy="450" r="68.5" fill="#F7EBEC" stroke="#1D1E2C" stroke-width="11"/>
<mask id="mask0" mask-type="alpha" maskUnits="userSpaceOnUse" x="662" y="387" width="116" height="116">
<circle cx="720" cy="445" r="58" fill="#F7EBEC"/>
</mask>
<g mask="url(#mask0)">
<circle cx="720" cy="486.541" r="33.7027" fill="#1D1E2C"/>
</g>
<ellipse cx="720" cy="430.5" rx="20" ry="19.5" fill="#1D1E2C"/>
<path d="M146.447 428L125 449.5M125 449.5L146.447 471M125 449.5H188" stroke="#1D1E2C" stroke-width="11" stroke-linecap="round" stroke-linejoin="round"/>
<path d="M1303.55 472L1325 450.5M1325 450.5L1303.55 429M1325 450.5L1262 450.5" stroke="#1D1E2C" stroke-width="11" stroke-linecap="round" stroke-linejoin="round"/>
</svg>
