<svg width="1440" height="900" viewBox="0 0 1440 900" fill="none" xmlns="http://www.w3.org/2000/svg">
<rect width="1440" height="900" fill="#E5E5E5"/>
<g clip-path="url(#clip0)">
<rect width="1440" height="900" fill="white"/>
<text fill="black" xml:space="preserve" style="white-space: pre" font-family="Advent Pro" font-size="120" font-weight="bold" letter-spacing="0.02em" text-decoration="underline"><tspan x="169" y="493.42">My Self</tspan></text>
<rect x="5" width="1435" height="900" fill="#EF6461"/>
<text fill="#1D1E2C" xml:space="preserve" style="white-space: pre" font-family="Museo Sans Rounded" font-size="120" font-weight="500" letter-spacing="-0.03em"><tspan x="159" y="492.46">Work</tspan></text>
<line x1="5.5" y1="900" x2="5.50004" y2="-2.40413e-07" stroke="#1D1E2C" stroke-width="11"/>
<circle cx="5" cy="450" r="68.5" fill="#F7EBEC" stroke="#1D1E2C" stroke-width="11"/>
<path d="M52.8891 453.889C55.037 451.741 55.037 448.259 52.8891 446.111L17.8873 411.109C15.7394 408.961 12.257 408.961 10.1091 411.109C7.96124 413.257 7.96124 416.739 10.1091 418.887L41.2218 450L10.1091 481.113C7.96124 483.261 7.96124 486.743 10.1091 488.891C12.257 491.039 15.7394 491.039 17.8873 488.891L52.8891 453.889ZM-18 455.5H49V444.5H-18V455.5Z" fill="#1D1E2C"/>
<circle cx="6" cy="450" r="68.5" fill="#F7EBEC" stroke="#1D1E2C" stroke-width="11"/>
<path d="M30.1109 473.889C32.2588 476.037 35.7412 476.037 37.8891 473.889C40.037 471.741 40.037 468.259 37.8891 466.111L30.1109 473.889ZM14 450L10.1109 446.111C7.96303 448.259 7.96303 451.741 10.1109 453.889L14 450ZM37.8891 433.889C40.037 431.741 40.037 428.259 37.8891 426.111C35.7412 423.963 32.2588 423.963 30.1109 426.111L37.8891 433.889ZM15.5 445C12.4624 445 10 447.462 10 450.5C10 453.538 12.4624 456 15.5 456V445ZM55.5 456C58.5376 456 61 453.538 61 450.5C61 447.462 58.5376 445 55.5 445V456ZM37.8891 466.111L17.8891 446.111L10.1109 453.889L30.1109 473.889L37.8891 466.111ZM17.8891 453.889L37.8891 433.889L30.1109 426.111L10.1109 446.111L17.8891 453.889ZM15.5 456H55.5V445H15.5V456Z" fill="#1D1E2C"/>
<g filter="url(#filter0_d)">
<rect x="632" y="401" width="216" height="216" rx="108" fill="#F7EBEC"/>
</g>
<g filter="url(#filter1_d)">
<rect x="878" y="401" width="216" height="216" rx="108" fill="#F7EBEC"/>
</g>
<g filter="url(#filter2_d)">
<rect x="1124" y="401" width="216" height="216" rx="108" fill="#F7EBEC"/>
</g>
<g filter="url(#filter3_d)">
<rect x="631" y="647" width="216" height="216" rx="108" fill="#F7EBEC"/>
</g>
<g filter="url(#filter4_d)">
<rect x="630" y="893" width="216" height="216" rx="108" fill="#F7EBEC"/>
</g>
<g filter="url(#filter5_d)">
<rect x="877" y="647" width="216" height="216" rx="108" fill="#F7EBEC"/>
</g>
<g filter="url(#filter6_d)">
<rect x="1123" y="647" width="216" height="216" rx="108" fill="#F7EBEC"/>
</g>
<text fill="#1D1E2C" xml:space="preserve" style="white-space: pre" font-family="Museo Sans Rounded" font-size="30" font-weight="bold" letter-spacing="-0.01em"><tspan x="708.19" y="766.24">Zeta</tspan></text>
<text fill="#1D1E2C" xml:space="preserve" style="white-space: pre" font-family="Museo Sans Rounded" font-size="30" font-weight="bold" letter-spacing="-0.01em"><tspan x="910.129" y="766.24">Newsroom</tspan></text>
<text fill="#1D1E2C" xml:space="preserve" style="white-space: pre" font-family="Museo Sans Rounded" font-size="30" font-weight="bold" letter-spacing="-0.01em"><tspan x="1181.08" y="766.24">Libidex</tspan></text>
<text fill="#1D1E2C" xml:space="preserve" style="white-space: pre" font-family="Museo Sans Rounded" font-size="30" font-weight="bold" letter-spacing="-0.01em"><tspan x="664.107" y="520.24">Expohouse</tspan></text>
<text fill="#1D1E2C" xml:space="preserve" style="white-space: pre" font-family="Museo Sans Rounded" font-size="30" font-weight="bold" letter-spacing="-0.01em"><tspan x="909.305" y="520.24">Enjoy Wine</tspan></text>
<text fill="#1D1E2C" xml:space="preserve" style="white-space: pre" font-family="Museo Sans Rounded" font-size="30" font-weight="bold" letter-spacing="-0.01em"><tspan x="1158.29" y="520.24">Din M&#xe5;lare</tspan></text>
<text fill="#1D1E2C" xml:space="preserve" style="white-space: pre" font-family="Museo Sans Rounded" font-size="32" letter-spacing="0em"><tspan x="631" y="257.456">Lorem ipsum dolor sit amet, consectetur adipisic </tspan><tspan x="631" y="305.456">elit, sed do eiusmod tempor incidi ut labore et </tspan><tspan x="631" y="353.456">dolore magna aliqua. Ut enim ad minim.</tspan></text>
<path d="M1389 401L1389 863" stroke="black" stroke-opacity="0.15" stroke-width="16" stroke-linecap="round"/>
<path d="M1389 401L1389 829.258" stroke="#F7EBEC" stroke-width="11" stroke-linecap="round"/>
</g>
<defs>
<filter id="filter0_d" x="632" y="401" width="220" height="220" filterUnits="userSpaceOnUse" color-interpolation-filters="sRGB">
<feFlood flood-opacity="0" result="BackgroundImageFix"/>
<feColorMatrix in="SourceAlpha" type="matrix" values="0 0 0 0 0 0 0 0 0 0 0 0 0 0 0 0 0 0 127 0"/>
<feOffset dx="4" dy="4"/>
<feColorMatrix type="matrix" values="0 0 0 0 0 0 0 0 0 0 0 0 0 0 0 0 0 0 0.15 0"/>
<feBlend mode="normal" in2="BackgroundImageFix" result="effect1_dropShadow"/>
<feBlend mode="normal" in="SourceGraphic" in2="effect1_dropShadow" result="shape"/>
</filter>
<filter id="filter1_d" x="878" y="401" width="220" height="220" filterUnits="userSpaceOnUse" color-interpolation-filters="sRGB">
<feFlood flood-opacity="0" result="BackgroundImageFix"/>
<feColorMatrix in="SourceAlpha" type="matrix" values="0 0 0 0 0 0 0 0 0 0 0 0 0 0 0 0 0 0 127 0"/>
<feOffset dx="4" dy="4"/>
<feColorMatrix type="matrix" values="0 0 0 0 0 0 0 0 0 0 0 0 0 0 0 0 0 0 0.15 0"/>
<feBlend mode="normal" in2="BackgroundImageFix" result="effect1_dropShadow"/>
<feBlend mode="normal" in="SourceGraphic" in2="effect1_dropShadow" result="shape"/>
</filter>
<filter id="filter2_d" x="1124" y="401" width="220" height="220" filterUnits="userSpaceOnUse" color-interpolation-filters="sRGB">
<feFlood flood-opacity="0" result="BackgroundImageFix"/>
<feColorMatrix in="SourceAlpha" type="matrix" values="0 0 0 0 0 0 0 0 0 0 0 0 0 0 0 0 0 0 127 0"/>
<feOffset dx="4" dy="4"/>
<feColorMatrix type="matrix" values="0 0 0 0 0 0 0 0 0 0 0 0 0 0 0 0 0 0 0.15 0"/>
<feBlend mode="normal" in2="BackgroundImageFix" result="effect1_dropShadow"/>
<feBlend mode="normal" in="SourceGraphic" in2="effect1_dropShadow" result="shape"/>
</filter>
<filter id="filter3_d" x="631" y="647" width="220" height="220" filterUnits="userSpaceOnUse" color-interpolation-filters="sRGB">
<feFlood flood-opacity="0" result="BackgroundImageFix"/>
<feColorMatrix in="SourceAlpha" type="matrix" values="0 0 0 0 0 0 0 0 0 0 0 0 0 0 0 0 0 0 127 0"/>
<feOffset dx="4" dy="4"/>
<feColorMatrix type="matrix" values="0 0 0 0 0 0 0 0 0 0 0 0 0 0 0 0 0 0 0.15 0"/>
<feBlend mode="normal" in2="BackgroundImageFix" result="effect1_dropShadow"/>
<feBlend mode="normal" in="SourceGraphic" in2="effect1_dropShadow" result="shape"/>
</filter>
<filter id="filter4_d" x="630" y="893" width="220" height="220" filterUnits="userSpaceOnUse" color-interpolation-filters="sRGB">
<feFlood flood-opacity="0" result="BackgroundImageFix"/>
<feColorMatrix in="SourceAlpha" type="matrix" values="0 0 0 0 0 0 0 0 0 0 0 0 0 0 0 0 0 0 127 0"/>
<feOffset dx="4" dy="4"/>
<feColorMatrix type="matrix" values="0 0 0 0 0 0 0 0 0 0 0 0 0 0 0 0 0 0 0.15 0"/>
<feBlend mode="normal" in2="BackgroundImageFix" result="effect1_dropShadow"/>
<feBlend mode="normal" in="SourceGraphic" in2="effect1_dropShadow" result="shape"/>
</filter>
<filter id="filter5_d" x="877" y="647" width="220" height="220" filterUnits="userSpaceOnUse" color-interpolation-filters="sRGB">
<feFlood flood-opacity="0" result="BackgroundImageFix"/>
<feColorMatrix in="SourceAlpha" type="matrix" values="0 0 0 0 0 0 0 0 0 0 0 0 0 0 0 0 0 0 127 0"/>
<feOffset dx="4" dy="4"/>
<feColorMatrix type="matrix" values="0 0 0 0 0 0 0 0 0 0 0 0 0 0 0 0 0 0 0.15 0"/>
<feBlend mode="normal" in2="BackgroundImageFix" result="effect1_dropShadow"/>
<feBlend mode="normal" in="SourceGraphic" in2="effect1_dropShadow" result="shape"/>
</filter>
<filter id="filter6_d" x="1123" y="647" width="220" height="220" filterUnits="userSpaceOnUse" color-interpolation-filters="sRGB">
<feFlood flood-opacity="0" result="BackgroundImageFix"/>
<feColorMatrix in="SourceAlpha" type="matrix" values="0 0 0 0 0 0 0 0 0 0 0 0 0 0 0 0 0 0 127 0"/>
<feOffset dx="4" dy="4"/>
<feColorMatrix type="matrix" values="0 0 0 0 0 0 0 0 0 0 0 0 0 0 0 0 0 0 0.15 0"/>
<feBlend mode="normal" in2="BackgroundImageFix" result="effect1_dropShadow"/>
<feBlend mode="normal" in="SourceGraphic" in2="effect1_dropShadow" result="shape"/>
</filter>
<clipPath id="clip0">
<rect width="1440" height="900" fill="white"/>
</clipPath>
</defs>
</svg>
