<svg width="1440" height="900" viewBox="0 0 1440 900" fill="none" xmlns="http://www.w3.org/2000/svg">
<rect width="1440" height="900" fill="#E5E5E5"/>
<g clip-path="url(#clip0)">
<rect width="1440" height="900" fill="white"/>
<text fill="black" xml:space="preserve" style="white-space: pre" font-family="Advent Pro" font-size="120" font-weight="bold" letter-spacing="0.02em"><tspan x="150" y="493.42">My Work</tspan></text>
<rect width="1440" height="900" fill="#B47EDE"/>
<text fill="#1D1E2C" xml:space="preserve" style="white-space: pre" font-family="Museo Sans Rounded" font-size="120" font-weight="500" letter-spacing="-0.03em"><tspan x="1022" y="492.46">Mark</tspan></text>
<line x1="1434.5" y1="900" x2="1434.5" y2="-2.40413e-07" stroke="#1D1E2C" stroke-width="11"/>
<circle cx="1440" cy="450" r="68.5" fill="#F7EBEC" stroke="#1D1E2C" stroke-width="11"/>
<path d="M1387.11 446.111C1384.96 448.259 1384.96 451.741 1387.11 453.889L1422.11 488.891C1424.26 491.039 1427.74 491.039 1429.89 488.891C1432.04 486.743 1432.04 483.261 1429.89 481.113L1398.78 450L1429.89 418.887C1432.04 416.739 1432.04 413.257 1429.89 411.109C1427.74 408.961 1424.26 408.961 1422.11 411.109L1387.11 446.111ZM1448 444.5H1391V455.5H1448V444.5Z" fill="#1D1E2C"/>
<text fill="black" xml:space="preserve" style="white-space: pre" font-family="Museo Sans Rounded" font-size="32" letter-spacing="0em"><tspan x="100" y="255.956">Turpis sapien sapien adipiscing parturient blandit </tspan><tspan x="100" y="300.956">mi scelerisque porttitor habitant adipiscing penat </tspan><tspan x="100" y="345.956">adipiscing nascetur at ad duis tempus ac vestibu </tspan><tspan x="100" y="390.956">parturient nisi dictumst natoque.&#10;</tspan><tspan x="100" y="467.956">A laoreet et consectetur venenatis adipiscing </tspan><tspan x="100" y="512.956">odio non convallis eu mauris sit a dui laoreet </tspan><tspan x="100" y="557.956">varius tempus magnis commodo.</tspan></text>
<g filter="url(#filter0_d)">
<rect x="100" y="619" width="201" height="60" rx="30" fill="#F7EBEC"/>
</g>
<g filter="url(#filter1_d)">
<rect x="321" y="619" width="201" height="60" rx="30" fill="#F7EBEC"/>
</g>
<circle cx="1440" cy="450" r="68.5" fill="#F7EBEC" stroke="#1D1E2C" stroke-width="11"/>
<path d="M1406 430L1426 450L1406 470" stroke="#1D1E2C" stroke-width="11" stroke-linecap="round" stroke-linejoin="round"/>
<circle cx="1440" cy="450" r="68.5" fill="#F7EBEC" stroke="#1D1E2C" stroke-width="11"/>
<path d="M1412 430L1432 450L1412 470" stroke="#1D1E2C" stroke-width="11" stroke-linecap="round" stroke-linejoin="round"/>
<path d="M1430.5 449.5H1390.5" stroke="#1D1E2C" stroke-width="11" stroke-linecap="round"/>
</g>
<defs>
<filter id="filter0_d" x="100" y="619" width="205" height="64" filterUnits="userSpaceOnUse" color-interpolation-filters="sRGB">
<feFlood flood-opacity="0" result="BackgroundImageFix"/>
<feColorMatrix in="SourceAlpha" type="matrix" values="0 0 0 0 0 0 0 0 0 0 0 0 0 0 0 0 0 0 127 0"/>
<feOffset dx="4" dy="4"/>
<feColorMatrix type="matrix" values="0 0 0 0 0 0 0 0 0 0 0 0 0 0 0 0 0 0 0.15 0"/>
<feBlend mode="normal" in2="BackgroundImageFix" result="effect1_dropShadow"/>
<feBlend mode="normal" in="SourceGraphic" in2="effect1_dropShadow" result="shape"/>
</filter>
<filter id="filter1_d" x="321" y="619" width="205" height="64" filterUnits="userSpaceOnUse" color-interpolation-filters="sRGB">
<feFlood flood-opacity="0" result="BackgroundImageFix"/>
<feColorMatrix in="SourceAlpha" type="matrix" values="0 0 0 0 0 0 0 0 0 0 0 0 0 0 0 0 0 0 127 0"/>
<feOffset dx="4" dy="4"/>
<feColorMatrix type="matrix" values="0 0 0 0 0 0 0 0 0 0 0 0 0 0 0 0 0 0 0.15 0"/>
<feBlend mode="normal" in2="BackgroundImageFix" result="effect1_dropShadow"/>
<feBlend mode="normal" in="SourceGraphic" in2="effect1_dropShadow" result="shape"/>
</filter>
<clipPath id="clip0">
<rect width="1440" height="900" fill="white"/>
</clipPath>
</defs>
</svg>
