<svg width="64" height="58" viewBox="0 0 64 58" fill="none" xmlns="http://www.w3.org/2000/svg">
<g id="{ }">
<path d="M5.82383 40.3626C5.82383 38.7797 5.52693 37.5587 4.93312 36.6994C4.385 35.8402 3.76836 35.1844 3.0832 34.7322C2.12398 34.1895 1.37031 33.6468 0.822187 33.1041C0.274062 32.5614 0 31.7474 0 30.662V26.8632C0 25.7778 0.274062 24.9637 0.822187 24.4211C1.37031 23.8784 2.10115 23.3131 3.01469 22.7251C3.74552 22.3181 4.385 21.6624 4.93312 20.7579C5.52693 19.8534 5.82383 18.5871 5.82383 16.9591V10.9895C5.82383 8.72827 6.25776 6.89669 7.12562 5.49474C8.03916 4.04756 9.11258 2.91696 10.3459 2.10292C11.5791 1.28889 12.8353 0.7462 14.1142 0.474856C15.4389 0.158286 16.5351 0 17.403 0H18.6362C21.1485 0 22.4046 1.24366 22.4046 3.73099V5.08772C22.4046 7.57505 21.1485 8.81872 18.6362 8.81872C18.3165 8.81872 17.9739 8.86394 17.6085 8.95439C17.2888 9.04484 16.969 9.22573 16.6493 9.49708C16.3752 9.7232 16.1468 10.085 15.9641 10.5825C15.7814 11.0347 15.6901 11.6452 15.6901 12.414V20.0117C15.6901 21.7302 15.3932 23.1548 14.7994 24.2854C14.2056 25.416 13.5433 26.2979 12.8124 26.931C11.9902 27.6998 11.031 28.2651 9.93476 28.6269V28.7626C11.031 29.1244 11.9902 29.6671 12.8124 30.3906C13.5433 31.0238 14.2056 31.9057 14.7994 33.0363C15.3932 34.1216 15.6901 35.5462 15.6901 37.3099V45.586C15.6901 46.3548 15.7814 46.9879 15.9641 47.4854C16.1468 47.9376 16.3752 48.2994 16.6493 48.5708C16.969 48.7969 17.2888 48.9552 17.6085 49.0456C17.9739 49.1361 18.3165 49.1813 18.6362 49.1813C21.1485 49.1813 22.4046 50.425 22.4046 52.9123V54.269C22.4046 56.7563 21.1485 58 18.6362 58H17.403C16.5351 58 15.4389 57.8417 14.1142 57.5252C12.8353 57.2538 11.5791 56.7111 10.3459 55.8971C9.11258 55.083 8.03916 53.9524 7.12562 52.5053C6.25776 51.1033 5.82383 49.2717 5.82383 47.0105V40.3626Z" fill="#1D1E2C"/>
<path d="M41.5954 52.9123C41.5954 50.425 42.8515 49.1813 45.3638 49.1813C45.6835 49.1813 46.0032 49.1361 46.323 49.0456C46.6884 48.9552 47.0081 48.7969 47.2822 48.5708C47.6019 48.2994 47.8532 47.9376 48.0359 47.4854C48.2186 46.9879 48.3099 46.3548 48.3099 45.586V37.3099C48.3099 35.5462 48.6068 34.1216 49.2006 33.0363C49.7944 31.9057 50.4567 31.0238 51.1876 30.3906C52.0098 29.6671 52.969 29.1244 54.0652 28.7626V28.6269C52.969 28.2651 52.0098 27.6998 51.1876 26.931C50.4567 26.2979 49.7944 25.416 49.2006 24.2854C48.6068 23.1548 48.3099 21.7302 48.3099 20.0117V12.414C48.3099 11.6452 48.2186 11.0347 48.0359 10.5825C47.8532 10.085 47.6019 9.7232 47.2822 9.49708C47.0081 9.22573 46.6884 9.04484 46.323 8.95439C46.0032 8.86394 45.6835 8.81872 45.3638 8.81872C42.8515 8.81872 41.5954 7.57505 41.5954 5.08772V3.73099C41.5954 1.24366 42.8515 0 45.3638 0H46.597C47.4649 0 48.5383 0.158286 49.8173 0.474856C51.1419 0.7462 52.4209 1.28889 53.6541 2.10292C54.8874 2.91696 55.938 4.04756 56.8059 5.49474C57.7194 6.89669 58.1762 8.72827 58.1762 10.9895V16.9591C58.1762 18.5871 58.4502 19.8534 58.9984 20.7579C59.5922 21.6624 60.2545 22.3181 60.9853 22.7251C61.8989 23.3131 62.6297 23.8784 63.1778 24.4211C63.7259 24.9637 64 25.7778 64 26.8632V30.662C64 31.7474 63.7259 32.5614 63.1778 33.1041C62.6297 33.6468 61.876 34.1895 60.9168 34.7322C60.2316 35.1844 59.5922 35.8402 58.9984 36.6994C58.4502 37.5587 58.1762 38.7797 58.1762 40.3626V47.0105C58.1762 49.2717 57.7194 51.1033 56.8059 52.5053C55.938 53.9524 54.8874 55.083 53.6541 55.8971C52.4209 56.7111 51.1419 57.2538 49.8173 57.5252C48.5383 57.8417 47.4649 58 46.597 58H45.3638C42.8515 58 41.5954 56.7563 41.5954 54.269V52.9123Z" fill="#1D1E2C"/>
</g>
</svg>
